<svg xmlns="http://www.w3.org/2000/svg" viewBox="0 0 920 520" role="img">
<title>Sui versus Bitcoin, indexed to 100</title>
<rect width="920" height="520" fill="#0b0d10"/>
<text x="28" y="36" fill="#f0a202" font-family="ui-sans-serif, system-ui, sans-serif" font-size="18" font-weight="700">Sui (SUI) vs BTC, indexed to 100, 90 days</text>
<line x1="72" y1="460.0" x2="896" y2="460.0" stroke="#2a3038"/>
<text x="64" y="464.0" fill="#9aa3ad" font-family="ui-sans-serif, system-ui, sans-serif" font-size="11" text-anchor="end">92</text>
<line x1="72" y1="357.5" x2="896" y2="357.5" stroke="#2a3038"/>
<text x="64" y="361.5" fill="#9aa3ad" font-family="ui-sans-serif, system-ui, sans-serif" font-size="11" text-anchor="end">113</text>
<line x1="72" y1="255.0" x2="896" y2="255.0" stroke="#2a3038"/>
<text x="64" y="259.0" fill="#9aa3ad" font-family="ui-sans-serif, system-ui, sans-serif" font-size="11" text-anchor="end">135</text>
<line x1="72" y1="152.5" x2="896" y2="152.5" stroke="#2a3038"/>
<text x="64" y="156.5" fill="#9aa3ad" font-family="ui-sans-serif, system-ui, sans-serif" font-size="11" text-anchor="end">156</text>
<line x1="72" y1="50.0" x2="896" y2="50.0" stroke="#2a3038"/>
<text x="64" y="54.0" fill="#9aa3ad" font-family="ui-sans-serif, system-ui, sans-serif" font-size="11" text-anchor="end">178</text>
<path d="M 72.0 420.4 L 81.2 413.1 L 90.3 406.1 L 99.5 408.5 L 108.6 408.9 L 117.8 420.1 L 126.9 399.4 L 136.1 401.4 L 145.2 408.5 L 154.4 407.7 L 163.6 400.8 L 172.7 401.8 L 181.9 397.9 L 191.0 387.6 L 200.2 391.0 L 209.3 398.9 L 218.5 406.2 L 227.6 404.5 L 236.8 396.6 L 246.0 409.2 L 255.1 407.8 L 264.3 407.6 L 273.4 401.2 L 282.6 416.0 L 291.7 416.3 L 300.9 410.7 L 310.0 411.0 L 319.2 406.5 L 328.4 402.3 L 337.5 404.9 L 346.7 400.2 L 355.8 399.9 L 365.0 400.4 L 374.1 407.6 L 383.3 410.5 L 392.4 411.5 L 401.6 411.3 L 410.8 414.7 L 419.9 414.4 L 429.1 415.8 L 438.2 403.2 L 447.4 401.7 L 456.5 366.4 L 465.7 337.9 L 474.8 297.3 L 484.0 306.8 L 493.2 302.0 L 502.3 292.3 L 511.5 295.9 L 520.6 292.0 L 529.8 282.4 L 538.9 301.1 L 548.1 298.0 L 557.2 302.4 L 566.4 295.5 L 575.6 304.2 L 584.7 305.2 L 593.9 274.8 L 603.0 287.0 L 612.2 285.8 L 621.3 281.9 L 630.5 291.4 L 639.6 296.3 L 648.8 297.6 L 658.0 310.8 L 667.1 305.9 L 676.3 305.4 L 685.4 308.8 L 694.6 298.4 L 703.7 318.2 L 712.9 314.0 L 722.0 312.2 L 731.2 277.8 L 740.4 275.0 L 749.5 275.5 L 758.7 234.0 L 767.8 237.1 L 777.0 250.9 L 786.1 251.0 L 795.3 253.3 L 804.4 250.7 L 813.6 250.4 L 822.8 257.8 L 831.9 256.6 L 841.1 257.1 L 850.2 247.4 L 859.4 250.0 L 868.5 248.2 L 877.7 234.8 L 886.8 240.3 L 896.0 242.4" fill="none" stroke="#9aa3ad" stroke-width="2"/>
<path d="M 72.0 420.4 L 81.2 416.2 L 90.3 401.7 L 99.5 408.3 L 108.6 403.5 L 117.8 413.1 L 126.9 385.9 L 136.1 390.7 L 145.2 401.6 L 154.4 400.8 L 163.6 398.7 L 172.7 394.5 L 181.9 384.5 L 191.0 379.7 L 200.2 384.3 L 209.3 397.9 L 218.5 420.5 L 227.6 420.2 L 236.8 412.1 L 246.0 440.6 L 255.1 432.8 L 264.3 437.1 L 273.4 432.9 L 282.6 440.0 L 291.7 443.9 L 300.9 434.8 L 310.0 433.8 L 319.2 432.4 L 328.4 434.4 L 337.5 446.4 L 346.7 446.3 L 355.8 432.9 L 365.0 436.8 L 374.1 438.3 L 383.3 432.5 L 392.4 440.2 L 401.6 434.9 L 410.8 439.4 L 419.9 442.9 L 429.1 447.1 L 438.2 444.4 L 447.4 460.0 L 456.5 423.6 L 465.7 405.0 L 474.8 331.0 L 484.0 350.2 L 493.2 326.9 L 502.3 361.0 L 511.5 389.1 L 520.6 382.3 L 529.8 373.9 L 538.9 398.2 L 548.1 397.3 L 557.2 420.1 L 566.4 409.7 L 575.6 413.0 L 584.7 396.6 L 593.9 371.6 L 603.0 390.3 L 612.2 363.8 L 621.3 352.6 L 630.5 348.2 L 639.6 352.8 L 648.8 379.0 L 658.0 409.1 L 667.1 410.4 L 676.3 410.7 L 685.4 425.9 L 694.6 413.5 L 703.7 436.5 L 712.9 418.7 L 722.0 400.1 L 731.2 350.9 L 740.4 321.9 L 749.5 295.1 L 758.7 198.6 L 767.8 211.3 L 777.0 253.1 L 786.1 217.3 L 795.3 96.3 L 804.4 116.5 L 813.6 50.0 L 822.8 114.2 L 831.9 124.3 L 841.1 117.1 L 850.2 107.8 L 859.4 128.6 L 868.5 103.0 L 877.7 86.8 L 886.8 82.9 L 896.0 101.3" fill="none" stroke="#f0a202" stroke-width="2.5"/>
<text x="72" y="496" fill="#9aa3ad" font-family="ui-sans-serif, system-ui, sans-serif" font-size="11" text-anchor="middle">Jul 09</text>
<text x="209" y="496" fill="#9aa3ad" font-family="ui-sans-serif, system-ui, sans-serif" font-size="11" text-anchor="middle">Jul 24</text>
<text x="347" y="496" fill="#9aa3ad" font-family="ui-sans-serif, system-ui, sans-serif" font-size="11" text-anchor="middle">Aug 08</text>
<text x="484" y="496" fill="#9aa3ad" font-family="ui-sans-serif, system-ui, sans-serif" font-size="11" text-anchor="middle">Aug 23</text>
<text x="621" y="496" fill="#9aa3ad" font-family="ui-sans-serif, system-ui, sans-serif" font-size="11" text-anchor="middle">Sep 07</text>
<text x="759" y="496" fill="#9aa3ad" font-family="ui-sans-serif, system-ui, sans-serif" font-size="11" text-anchor="middle">Sep 22</text>
<text x="896" y="496" fill="#9aa3ad" font-family="ui-sans-serif, system-ui, sans-serif" font-size="11" text-anchor="middle">Oct 06</text>
<rect x="72" y="18" width="12" height="12" fill="#f0a202"/>
<text x="90" y="29" fill="#e6e1d6" font-family="ui-sans-serif, system-ui, sans-serif" font-size="12">SUI</text>
<rect x="162" y="18" width="12" height="12" fill="#9aa3ad"/>
<text x="180" y="29" fill="#e6e1d6" font-family="ui-sans-serif, system-ui, sans-serif" font-size="12">BTC</text>
<text x="896" y="29" fill="#e6e1d6" font-family="ui-sans-serif, system-ui, sans-serif" font-size="12" text-anchor="end">SUI 167 | BTC 137</text>
</svg>