<svg xmlns="http://www.w3.org/2000/svg" viewBox="0 0 920 520" role="img">
<title>Akash Network versus Bitcoin, indexed to 100</title>
<rect width="920" height="520" fill="#0b0d10"/>
<text x="28" y="36" fill="#f0a202" font-family="ui-sans-serif, system-ui, sans-serif" font-size="18" font-weight="700">Akash Network (AKT) vs BTC, indexed to 100, 90 days</text>
<line x1="72" y1="460.0" x2="896" y2="460.0" stroke="#2a3038"/>
<text x="64" y="464.0" fill="#9aa3ad" font-family="ui-sans-serif, system-ui, sans-serif" font-size="11" text-anchor="end">74</text>
<line x1="72" y1="357.5" x2="896" y2="357.5" stroke="#2a3038"/>
<text x="64" y="361.5" fill="#9aa3ad" font-family="ui-sans-serif, system-ui, sans-serif" font-size="11" text-anchor="end">90</text>
<line x1="72" y1="255.0" x2="896" y2="255.0" stroke="#2a3038"/>
<text x="64" y="259.0" fill="#9aa3ad" font-family="ui-sans-serif, system-ui, sans-serif" font-size="11" text-anchor="end">106</text>
<line x1="72" y1="152.5" x2="896" y2="152.5" stroke="#2a3038"/>
<text x="64" y="156.5" fill="#9aa3ad" font-family="ui-sans-serif, system-ui, sans-serif" font-size="11" text-anchor="end">123</text>
<line x1="72" y1="50.0" x2="896" y2="50.0" stroke="#2a3038"/>
<text x="64" y="54.0" fill="#9aa3ad" font-family="ui-sans-serif, system-ui, sans-serif" font-size="11" text-anchor="end">139</text>
<path d="M 72.0 294.8 L 81.2 285.3 L 90.3 276.1 L 99.5 279.3 L 108.6 279.8 L 117.8 294.5 L 126.9 267.3 L 136.1 270.0 L 145.2 279.3 L 154.4 278.2 L 163.6 269.2 L 172.7 270.5 L 181.9 265.3 L 191.0 251.9 L 200.2 256.3 L 209.3 266.6 L 218.5 276.3 L 227.6 274.0 L 236.8 263.7 L 246.0 280.2 L 255.1 278.4 L 264.3 278.1 L 273.4 269.7 L 282.6 289.1 L 291.7 289.6 L 300.9 282.2 L 310.0 282.6 L 319.2 276.6 L 328.4 271.1 L 337.5 274.6 L 346.7 268.4 L 355.8 268.0 L 365.0 268.6 L 374.1 278.1 L 383.3 281.9 L 392.4 283.2 L 401.6 283.0 L 410.8 287.4 L 419.9 287.0 L 429.1 288.8 L 438.2 272.3 L 447.4 270.3 L 456.5 224.0 L 465.7 186.5 L 474.8 133.2 L 484.0 145.7 L 493.2 139.3 L 502.3 126.7 L 511.5 131.3 L 520.6 126.2 L 529.8 113.6 L 538.9 138.2 L 548.1 134.2 L 557.2 139.9 L 566.4 130.9 L 575.6 142.3 L 584.7 143.5 L 593.9 103.6 L 603.0 119.6 L 612.2 118.1 L 621.3 113.0 L 630.5 125.4 L 639.6 131.9 L 648.8 133.6 L 658.0 151.0 L 667.1 144.5 L 676.3 143.9 L 685.4 148.3 L 694.6 134.7 L 703.7 160.7 L 712.9 155.1 L 722.0 152.8 L 731.2 107.5 L 740.4 103.9 L 749.5 104.6 L 758.7 50.0 L 767.8 54.2 L 777.0 72.3 L 786.1 72.3 L 795.3 75.3 L 804.4 71.9 L 813.6 71.6 L 822.8 81.3 L 831.9 79.7 L 841.1 80.4 L 850.2 67.6 L 859.4 71.0 L 868.5 68.6 L 877.7 51.1 L 886.8 58.3 L 896.0 61.1" fill="none" stroke="#9aa3ad" stroke-width="2"/>
<path d="M 72.0 294.8 L 81.2 275.8 L 90.3 266.2 L 99.5 279.1 L 108.6 278.9 L 117.8 322.2 L 126.9 310.3 L 136.1 300.8 L 145.2 325.3 L 154.4 336.2 L 163.6 341.3 L 172.7 364.4 L 181.9 349.1 L 191.0 333.1 L 200.2 339.2 L 209.3 371.0 L 218.5 393.1 L 227.6 410.7 L 236.8 409.7 L 246.0 445.6 L 255.1 441.6 L 264.3 460.0 L 273.4 444.6 L 282.6 452.6 L 291.7 404.1 L 300.9 419.4 L 310.0 351.4 L 319.2 384.7 L 328.4 390.9 L 337.5 410.8 L 346.7 399.4 L 355.8 385.3 L 365.0 388.2 L 374.1 397.2 L 383.3 368.0 L 392.4 353.6 L 401.6 343.1 L 410.8 338.5 L 419.9 353.5 L 429.1 371.9 L 438.2 372.5 L 447.4 409.4 L 456.5 376.9 L 465.7 351.2 L 474.8 294.1 L 484.0 337.9 L 493.2 309.7 L 502.3 312.9 L 511.5 331.1 L 520.6 323.6 L 529.8 324.8 L 538.9 369.4 L 548.1 372.7 L 557.2 379.5 L 566.4 374.5 L 575.6 388.5 L 584.7 385.3 L 593.9 357.0 L 603.0 377.2 L 612.2 337.3 L 621.3 305.1 L 630.5 327.6 L 639.6 282.5 L 648.8 311.6 L 658.0 350.3 L 667.1 352.3 L 676.3 344.2 L 685.4 352.4 L 694.6 339.2 L 703.7 389.9 L 712.9 378.0 L 722.0 361.5 L 731.2 327.6 L 740.4 319.9 L 749.5 300.5 L 758.7 195.5 L 767.8 159.0 L 777.0 187.1 L 786.1 194.5 L 795.3 161.1 L 804.4 171.2 L 813.6 169.3 L 822.8 215.2 L 831.9 229.3 L 841.1 230.4 L 850.2 221.3 L 859.4 215.1 L 868.5 200.0 L 877.7 84.2 L 886.8 96.1 L 896.0 98.5" fill="none" stroke="#f0a202" stroke-width="2.5"/>
<text x="72" y="496" fill="#9aa3ad" font-family="ui-sans-serif, system-ui, sans-serif" font-size="11" text-anchor="middle">Jul 09</text>
<text x="209" y="496" fill="#9aa3ad" font-family="ui-sans-serif, system-ui, sans-serif" font-size="11" text-anchor="middle">Jul 24</text>
<text x="347" y="496" fill="#9aa3ad" font-family="ui-sans-serif, system-ui, sans-serif" font-size="11" text-anchor="middle">Aug 08</text>
<text x="484" y="496" fill="#9aa3ad" font-family="ui-sans-serif, system-ui, sans-serif" font-size="11" text-anchor="middle">Aug 23</text>
<text x="621" y="496" fill="#9aa3ad" font-family="ui-sans-serif, system-ui, sans-serif" font-size="11" text-anchor="middle">Sep 07</text>
<text x="759" y="496" fill="#9aa3ad" font-family="ui-sans-serif, system-ui, sans-serif" font-size="11" text-anchor="middle">Sep 22</text>
<text x="896" y="496" fill="#9aa3ad" font-family="ui-sans-serif, system-ui, sans-serif" font-size="11" text-anchor="middle">Oct 06</text>
<rect x="72" y="18" width="12" height="12" fill="#f0a202"/>
<text x="90" y="29" fill="#e6e1d6" font-family="ui-sans-serif, system-ui, sans-serif" font-size="12">AKT</text>
<rect x="162" y="18" width="12" height="12" fill="#9aa3ad"/>
<text x="180" y="29" fill="#e6e1d6" font-family="ui-sans-serif, system-ui, sans-serif" font-size="12">BTC</text>
<text x="896" y="29" fill="#e6e1d6" font-family="ui-sans-serif, system-ui, sans-serif" font-size="12" text-anchor="end">AKT 131 | BTC 137</text>
</svg>