<svg xmlns="http://www.w3.org/2000/svg" viewBox="0 0 920 520" role="img">
<title>Venice Token versus Bitcoin, indexed to 100</title>
<rect width="920" height="520" fill="#0b0d10"/>
<text x="28" y="36" fill="#f0a202" font-family="ui-sans-serif, system-ui, sans-serif" font-size="18" font-weight="700">Venice Token (VVV) vs BTC, indexed to 100, 90 days</text>
<line x1="72" y1="460.0" x2="896" y2="460.0" stroke="#2a3038"/>
<text x="64" y="464.0" fill="#9aa3ad" font-family="ui-sans-serif, system-ui, sans-serif" font-size="11" text-anchor="end">92</text>
<line x1="72" y1="357.5" x2="896" y2="357.5" stroke="#2a3038"/>
<text x="64" y="361.5" fill="#9aa3ad" font-family="ui-sans-serif, system-ui, sans-serif" font-size="11" text-anchor="end">139</text>
<line x1="72" y1="255.0" x2="896" y2="255.0" stroke="#2a3038"/>
<text x="64" y="259.0" fill="#9aa3ad" font-family="ui-sans-serif, system-ui, sans-serif" font-size="11" text-anchor="end">186</text>
<line x1="72" y1="152.5" x2="896" y2="152.5" stroke="#2a3038"/>
<text x="64" y="156.5" fill="#9aa3ad" font-family="ui-sans-serif, system-ui, sans-serif" font-size="11" text-anchor="end">233</text>
<line x1="72" y1="50.0" x2="896" y2="50.0" stroke="#2a3038"/>
<text x="64" y="54.0" fill="#9aa3ad" font-family="ui-sans-serif, system-ui, sans-serif" font-size="11" text-anchor="end">280</text>
<path d="M 72.0 441.8 L 81.2 438.4 L 90.3 435.2 L 99.5 436.4 L 108.6 436.5 L 117.8 441.6 L 126.9 432.2 L 136.1 433.1 L 145.2 436.3 L 154.4 436.0 L 163.6 432.8 L 172.7 433.3 L 181.9 431.5 L 191.0 426.8 L 200.2 428.3 L 209.3 431.9 L 218.5 435.3 L 227.6 434.5 L 236.8 430.9 L 246.0 436.7 L 255.1 436.0 L 264.3 435.9 L 273.4 433.0 L 282.6 439.8 L 291.7 439.9 L 300.9 437.4 L 310.0 437.5 L 319.2 435.4 L 328.4 433.5 L 337.5 434.7 L 346.7 432.5 L 355.8 432.4 L 365.0 432.6 L 374.1 435.9 L 383.3 437.2 L 392.4 437.7 L 401.6 437.6 L 410.8 439.2 L 419.9 439.0 L 429.1 439.7 L 438.2 433.9 L 447.4 433.2 L 456.5 417.1 L 465.7 404.0 L 474.8 385.5 L 484.0 389.8 L 493.2 387.6 L 502.3 383.2 L 511.5 384.8 L 520.6 383.0 L 529.8 378.6 L 538.9 387.2 L 548.1 385.8 L 557.2 387.8 L 566.4 384.6 L 575.6 388.6 L 584.7 389.0 L 593.9 375.1 L 603.0 380.7 L 612.2 380.2 L 621.3 378.4 L 630.5 382.7 L 639.6 385.0 L 648.8 385.6 L 658.0 391.6 L 667.1 389.4 L 676.3 389.2 L 685.4 390.7 L 694.6 386.0 L 703.7 395.0 L 712.9 393.1 L 722.0 392.3 L 731.2 376.5 L 740.4 375.2 L 749.5 375.5 L 758.7 356.5 L 767.8 357.9 L 777.0 364.2 L 786.1 364.2 L 795.3 365.3 L 804.4 364.1 L 813.6 364.0 L 822.8 367.4 L 831.9 366.8 L 841.1 367.0 L 850.2 362.6 L 859.4 363.8 L 868.5 363.0 L 877.7 356.8 L 886.8 359.4 L 896.0 360.3" fill="none" stroke="#9aa3ad" stroke-width="2"/>
<path d="M 72.0 441.8 L 81.2 440.5 L 90.3 446.9 L 99.5 460.0 L 108.6 458.1 L 117.8 456.8 L 126.9 448.1 L 136.1 454.4 L 145.2 456.3 L 154.4 446.1 L 163.6 434.3 L 172.7 437.5 L 181.9 438.1 L 191.0 417.9 L 200.2 426.5 L 209.3 432.5 L 218.5 423.2 L 227.6 406.4 L 236.8 396.9 L 246.0 411.6 L 255.1 411.7 L 264.3 421.5 L 273.4 424.1 L 282.6 435.0 L 291.7 439.0 L 300.9 433.7 L 310.0 423.2 L 319.2 437.9 L 328.4 439.3 L 337.5 442.3 L 346.7 444.0 L 355.8 444.6 L 365.0 439.0 L 374.1 433.4 L 383.3 440.7 L 392.4 438.4 L 401.6 428.0 L 410.8 427.9 L 419.9 429.8 L 429.1 434.9 L 438.2 406.8 L 447.4 391.9 L 456.5 385.4 L 465.7 382.4 L 474.8 355.3 L 484.0 342.2 L 493.2 340.2 L 502.3 339.6 L 511.5 329.0 L 520.6 320.7 L 529.8 315.4 L 538.9 353.2 L 548.1 341.3 L 557.2 337.1 L 566.4 340.6 L 575.6 348.9 L 584.7 350.4 L 593.9 333.3 L 603.0 314.2 L 612.2 330.4 L 621.3 335.8 L 630.5 308.2 L 639.6 166.2 L 648.8 228.2 L 658.0 198.8 L 667.1 212.0 L 676.3 197.4 L 685.4 251.2 L 694.6 219.7 L 703.7 253.2 L 712.9 209.2 L 722.0 169.9 L 731.2 126.9 L 740.4 167.7 L 749.5 100.8 L 758.7 50.0 L 767.8 51.3 L 777.0 83.1 L 786.1 68.6 L 795.3 82.2 L 804.4 94.6 L 813.6 100.8 L 822.8 129.3 L 831.9 144.8 L 841.1 131.0 L 850.2 159.4 L 859.4 129.3 L 868.5 124.1 L 877.7 87.2 L 886.8 109.9 L 896.0 137.4" fill="none" stroke="#f0a202" stroke-width="2.5"/>
<text x="72" y="496" fill="#9aa3ad" font-family="ui-sans-serif, system-ui, sans-serif" font-size="11" text-anchor="middle">Jul 09</text>
<text x="209" y="496" fill="#9aa3ad" font-family="ui-sans-serif, system-ui, sans-serif" font-size="11" text-anchor="middle">Jul 24</text>
<text x="347" y="496" fill="#9aa3ad" font-family="ui-sans-serif, system-ui, sans-serif" font-size="11" text-anchor="middle">Aug 08</text>
<text x="484" y="496" fill="#9aa3ad" font-family="ui-sans-serif, system-ui, sans-serif" font-size="11" text-anchor="middle">Aug 23</text>
<text x="621" y="496" fill="#9aa3ad" font-family="ui-sans-serif, system-ui, sans-serif" font-size="11" text-anchor="middle">Sep 07</text>
<text x="759" y="496" fill="#9aa3ad" font-family="ui-sans-serif, system-ui, sans-serif" font-size="11" text-anchor="middle">Sep 22</text>
<text x="896" y="496" fill="#9aa3ad" font-family="ui-sans-serif, system-ui, sans-serif" font-size="11" text-anchor="middle">Oct 06</text>
<rect x="72" y="18" width="12" height="12" fill="#f0a202"/>
<text x="90" y="29" fill="#e6e1d6" font-family="ui-sans-serif, system-ui, sans-serif" font-size="12">VVV</text>
<rect x="162" y="18" width="12" height="12" fill="#9aa3ad"/>
<text x="180" y="29" fill="#e6e1d6" font-family="ui-sans-serif, system-ui, sans-serif" font-size="12">BTC</text>
<text x="896" y="29" fill="#e6e1d6" font-family="ui-sans-serif, system-ui, sans-serif" font-size="12" text-anchor="end">VVV 240 | BTC 137</text>
</svg>